<?xml version="1.0" encoding="UTF-8"?>
<svg id="Ebene_2" data-name="Ebene 2" xmlns="http://www.w3.org/2000/svg" viewBox="0 0 343.49 188.64">
  <defs>
    <style>
      .cls-1 {
        fill: #9bc2d3;
      }

      .cls-1, .cls-2, .cls-3, .cls-4, .cls-5, .cls-6, .cls-7, .cls-8 {
        stroke-miterlimit: 10;
      }

      .cls-1, .cls-2, .cls-3, .cls-4, .cls-5, .cls-7, .cls-8 {
        stroke: #1d1d1b;
      }

      .cls-9 {
        fill: none;
      }

      .cls-2 {
        fill: #eb5b5d;
      }

      .cls-2, .cls-3, .cls-5, .cls-7, .cls-8 {
        stroke-width: .5px;
      }

      .cls-3 {
        fill: #6391cc;
      }

      .cls-10 {
        fill: #878787;
      }

      .cls-10, .cls-11 {
        isolation: isolate;
        opacity: .7;
      }

      .cls-5 {
        fill: #77ba54;
      }

      .cls-11 {
        fill: #575756;
      }

      .cls-6 {
        fill: #ffd532;
        stroke: #f9b233;
        stroke-width: 2px;
      }

      .cls-12 {
        fill: #b3dfee;
      }

      .cls-7 {
        fill: #a1d6e7;
      }

      .cls-8 {
        fill: #e8e561;
      }
    </style>
  </defs>
  <g id="Ebene_1-2" data-name="Ebene 1">
    <g id="Ebene_6" data-name="Ebene 6">
      <g>
        <path class="cls-9" d="M15.39,168.62c38.61,10.22,84.19,18.22,135.46,19.57,47.87,1.26,140.21-6.87,177.26-14.11"/>
        <path class="cls-11" d="M87.97,176.57l-4.96,6.01-29.81-5.01,7.6-45.25,33.61,5.64-4.92,6.02-20.67-3.47-5.36,31.93,24.52,4.12h-.01Z"/>
        <path class="cls-11" d="M98.66,184.54l-6.07-13.32,3.3-33.07,34.22,3.41-4.56,45.65-26.89-2.68h0ZM104.22,145.77l-2.34,23.41,4.25,9.32,11.08,1.1,3.22-32.22s-16.21-1.61-16.21-1.61Z"/>
        <path class="cls-11" d="M164.77,188.64l-24.02-25.74-.78,24.96-9.05-.29,1.44-45.86,24.16,25.55.78-24.76,8.92.28-1.44,45.86h0Z"/>
        <path class="cls-11" d="M204.02,187.16l-25.72-24.03.92,24.95-9.04.34-1.7-45.85,25.85,23.83-.92-24.76,8.92-.33,1.7,45.85h-.01Z"/>
        <path class="cls-11" d="M237.15,178.12l4.35,6.47-33.88,2.34-3.15-45.78,33.96-2.35-3.38,7-21.04,1.45.88,12.82,22.86-1.58.46,6.74-22.86,1.58.88,12.75,20.91-1.44h0Z"/>
        <path class="cls-11" d="M277.25,174.46l-3.25,7.09-30.1,2.84-4.31-45.68,33.94-3.2-3.2,7.08-20.87,1.97,3.04,32.24,24.75-2.34Z"/>
        <path class="cls-11" d="M309.21,137.82l-11.13,1.43,4.98,38.82-8.98,1.15-4.98-38.82-11.26,1.44-4.68-6.21,39.01-5-2.97,7.19h.01Z"/>
      </g>
      <path class="cls-10" d="M264.25,69.8c-.38,7.25-.84,14.58-1.18,21.44-.9,10.14.17,25.62-8.65,31.65-7.37,5.09-19.45-3.27-25.23-14.51-5.92-10.08-9.48-22.31-19.29-29.32-14.34-10.25-44.5-10.23-57.9,2.12-10.09,9.2-13.33,25.19-22.12,35.03-7.87,9.41-20.21,12.12-25,.02-2.3-5.4-2.8-13.37-3.28-21.8-.41-8.02-.9-16.11-1.34-24.49-1.33-23.44-1.47-50.61,26.74-55.94,10.65-1.88,22.82,1.02,35.16,2.31,11.12,1.28,22.44,1.63,33.61.63,15.19-.89,30.79-5.69,44.37-2.39,25.67,6.6,25.37,33.04,24.11,55.06v.21-.02Z"/>
    </g>
    <g id="controller-background">
      <path class="cls-1" d="M274.43,63.92c-.42,8.14-.94,16.38-1.32,24.08-1.01,11.4.19,28.79-9.72,35.56-8.28,5.72-21.86-3.67-28.35-16.31-6.66-11.33-10.66-25.07-21.67-32.95-16.12-11.52-50-11.49-65.05,2.38-11.34,10.33-14.98,28.3-24.86,39.36-8.85,10.57-22.71,13.62-28.09.02-2.59-6.07-3.15-15.02-3.68-24.5-.46-9.01-1.01-18.11-1.51-27.52-1.5-26.34-1.65-56.86,30.04-62.85,11.97-2.11,25.64,1.15,39.51,2.59,12.5,1.44,25.22,1.83,37.76.71,17.06-1,34.59-6.4,49.85-2.69,28.85,7.41,28.5,37.12,27.09,61.86v.26Z"/>
      <path class="cls-7" d="M271,39.5c-1.06,15.8-13.91,28.59-29.72,29.57-8.23.51-15.85-2.11-21.77-6.79-1.99-1.58-4.52-2.32-7.04-1.94-7.77,1.18-18.41,1.9-30.16,1.9s-22.46-.73-30.23-1.91c-2.52-.38-5.05.36-7.04,1.94-5.92,4.69-13.53,7.31-21.76,6.8-15.81-.98-28.67-13.75-29.74-29.55-1.26-18.58,13.44-34.04,31.76-34.04,7.73,0,14.82,2.76,20.33,7.35,2.01,1.68,4.61,2.49,7.2,2.11,7.71-1.12,18.08-1.8,29.49-1.8s21.65.67,29.34,1.78c2.61.37,5.22-.41,7.25-2.09,5.51-4.58,12.61-7.35,20.34-7.35,18.31,0,33,15.45,31.76,34.03h-.01Z"/>
      <circle class="cls-12" cx="125.2" cy="37.21" r="28.68"/>
      <circle class="cls-12" cx="239.33" cy="37.21" r="28.68"/>
      <circle class="cls-2" cx="224.97" cy="39.8" r="6.36"/>
      <circle class="cls-8" cx="242.31" cy="51.49" r="6.36"/>
      <circle class="cls-3" cx="253.68" cy="34.62" r="6.36" transform="translate(178.87 279.48) rotate(-80.78)"/>
      <circle class="cls-5" cx="236.35" cy="22.93" r="6.36"/>
      <g>
        <path class="cls-9" d="M0,158.34c42.23,11.97,92.15,21.63,148.46,24.1,52.57,2.3,154.18-4.86,195.03-12.1"/>
        <path class="cls-6" d="M79.6,168.46l-5.57,6.51-32.67-6.06,9.21-49.57,36.83,6.84-5.52,6.52-22.65-4.21-6.5,34.98,26.86,4.99h0Z"/>
        <path class="cls-6" d="M91.15,177.43l-6.41-14.75,4.26-36.27,37.54,4.4-5.89,50.08-29.5-3.46h0ZM98.01,134.93l-3.02,25.68,4.49,10.32,12.15,1.42,4.15-35.34-17.78-2.08h0Z"/>
        <path class="cls-6" d="M163.71,183.2l-25.9-28.75-1.34,27.41-9.94-.49,2.46-50.36,26.05,28.54,1.33-27.19,9.79.48-2.46,50.36h0Z"/>
        <path class="cls-6" d="M206.86,182.34l-27.81-26.91.54,27.44-9.95.2-.99-50.42,27.95,26.69-.53-27.22,9.8-.19.99,50.42h0Z"/>
        <path class="cls-6" d="M243.42,173.04l4.66,7.19-37.27,1.92-2.59-50.36,37.36-1.92-3.85,7.63-23.15,1.19.73,14.1,25.15-1.29.38,7.41-25.15,1.29.72,14.03,23.01-1.18h0Z"/>
        <path class="cls-6" d="M287.55,169.79l-3.7,7.72-33.13,2.54-3.86-50.27,37.35-2.86-3.66,7.72-22.97,1.76,2.72,35.48,27.24-2.09h.01Z"/>
        <path class="cls-6" d="M323.34,130.14l-12.26,1.36,4.72,42.74-9.89,1.09-4.72-42.74-12.4,1.37-5.03-6.91,42.96-4.75-3.4,7.84h.02Z"/>
      </g>
    </g>
    <g id="Ebene_5" data-name="Ebene 5">
      <path class="cls-4" d="M142.91,34.09v6.4c0,1.15-.93,2.09-2.09,2.09h-9.1c-1.15,0-2.09.93-2.09,2.09v9.1c0,1.15-.93,2.09-2.09,2.09h-6.4c-1.15,0-2.09-.93-2.09-2.09v-9.1c0-1.15-.93-2.09-2.09-2.09h-9.1c-1.15,0-2.09-.93-2.09-2.09v-6.4c0-1.15.93-2.09,2.09-2.09h9.1c1.15,0,2.09-.93,2.09-2.09v-9.1c0-1.15.93-2.09,2.09-2.09h6.4c1.15,0,2.09.93,2.09,2.09v9.1c0,1.15.93,2.09,2.09,2.09h9.1c1.15,0,2.09.93,2.09,2.09Z"/>
    </g>
  </g>
</svg>